<?xml version="1.0" encoding="UTF-8" standalone="no"?>
<svg
   version="1.1"
   width="1200"
   height="1371.4286"
   viewBox="0 0 1200.0001 1371.4286"
   id="svg11"
   xmlns="http://www.w3.org/2000/svg"
   xmlns:svg="http://www.w3.org/2000/svg">
  <defs
     id="defs11" />
  <g
     transform="matrix(8.5714286,0,0,8.5714286,-900.00001,-135.9998)"
     id="g11">
    <defs
       id="SvgjsDefs1758" />
    <g
       id="SvgjsG1759"
       featureKey="rDwwlG-0"
       transform="matrix(2.5,0,0,2.5,50,-29.133356)"
       fill="#ffffff">
      <path
         d="m 29,82 h 42 c 3.9,0 7,-3.1 7,-7 v -6 c 0,-0.6 -0.4,-1 -1,-1 H 66 V 19 c 0,-0.6 -0.4,-1 -1,-1 H 23 c -0.6,0 -1,0.4 -1,1 v 56 c 0,3.9 3.1,7 7,7 z M 76,70 v 5 c 0,2.8 -2.2,5 -5,5 H 33.9 C 35.2,78.7 36,77 36,75 V 70 Z M 24,20 H 64 V 68 H 35 c -0.6,0 -1,0.4 -1,1 v 6 c 0,2.8 -2.2,5 -5,5 -2.8,0 -5,-2.2 -5,-5 z"
         id="path1" />
      <path
         d="m 28,37 h 8 c 0.6,0 1,-0.4 1,-1 V 24 c 0,-0.6 -0.4,-1 -1,-1 h -8 c -0.6,0 -1,0.4 -1,1 v 12 c 0,0.6 0.4,1 1,1 z m 1,-12 h 6 v 10 h -6 z"
         id="path2" />
      <path
         d="m 40,25 h 20 c 0.6,0 1,-0.4 1,-1 0,-0.6 -0.4,-1 -1,-1 H 40 c -0.6,0 -1,0.4 -1,1 0,0.6 0.4,1 1,1 z"
         id="path3" />
      <path
         d="m 40,32 h 20 c 0.6,0 1,-0.4 1,-1 0,-0.6 -0.4,-1 -1,-1 H 40 c -0.6,0 -1,0.4 -1,1 0,0.6 0.4,1 1,1 z"
         id="path4" />
      <path
         d="m 40,37 h 20 c 0.6,0 1,-0.4 1,-1 0,-0.6 -0.4,-1 -1,-1 H 40 c -0.6,0 -1,0.4 -1,1 0,0.6 0.4,1 1,1 z"
         id="path5" />
      <path
         d="m 28,42 h 32 c 0.6,0 1,-0.4 1,-1 0,-0.6 -0.4,-1 -1,-1 H 28 c -0.6,0 -1,0.4 -1,1 0,0.6 0.4,1 1,1 z"
         id="path6" />
      <path
         d="m 28,47 h 32 c 0.6,0 1,-0.4 1,-1 0,-0.6 -0.4,-1 -1,-1 H 28 c -0.6,0 -1,0.4 -1,1 0,0.6 0.4,1 1,1 z"
         id="path7" />
      <path
         d="m 28,55 h 32 c 0.6,0 1,-0.4 1,-1 0,-0.6 -0.4,-1 -1,-1 H 28 c -0.6,0 -1,0.4 -1,1 0,0.6 0.4,1 1,1 z"
         id="path8" />
      <path
         d="m 28,60 h 32 c 0.6,0 1,-0.4 1,-1 0,-0.6 -0.4,-1 -1,-1 H 28 c -0.6,0 -1,0.4 -1,1 0,0.6 0.4,1 1,1 z"
         id="path9" />
      <path
         d="m 28,65 h 32 c 0.6,0 1,-0.4 1,-1 0,-0.6 -0.4,-1 -1,-1 H 28 c -0.6,0 -1,0.4 -1,1 0,0.6 0.4,1 1,1 z"
         id="path10" />
    </g>
  </g>
</svg>
